<mxfile host="fe167b28-d67c-49ca-ba4e-779681fec6ab" modified="2020-08-14T04:50:33.361Z" agent="5.0 (Windows NT 10.0; Win64; x64) AppleWebKit/537.36 (KHTML, like Gecko) Code/1.48.0 Chrome/78.0.3904.130 Electron/7.3.2 Safari/537.36" etag="m34RF77lO_ttRbzaoNu_" version="13.1.3" pages="3">
    <diagram id="6hGFLwfOUW9BJ-s0fimq" name="right_tbst">
        <mxGraphModel dx="1705" dy="844" grid="1" gridSize="10" guides="1" tooltips="1" connect="1" arrows="1" fold="1" page="1" pageScale="1" pageWidth="827" pageHeight="1169" math="0" shadow="0">
            <root>
                <mxCell id="0"/>
                <mxCell id="1" parent="0"/>
                <mxCell id="25" value="" style="rounded=0;whiteSpace=wrap;html=1;strokeColor=none;fillColor=#FFFFFF;" parent="1" vertex="1">
                    <mxGeometry x="120" y="80" width="540" height="280" as="geometry"/>
                </mxCell>
                <mxCell id="2" value="23" style="ellipse;whiteSpace=wrap;html=1;aspect=fixed;strokeColor=#006EAF;strokeWidth=2;fillColor=#1ba1e2;fontColor=#ffffff;" parent="1" vertex="1">
                    <mxGeometry x="320" y="100" width="40" height="40" as="geometry"/>
                </mxCell>
                <mxCell id="3" value="4&lt;span style=&quot;color: rgba(0 , 0 , 0 , 0) ; font-family: monospace ; font-size: 0px&quot;&gt;%3CmxGraphModel%3E%3Croot%3E%3CmxCell%20id%3D%220%22%2F%3E%3CmxCell%20id%3D%221%22%20parent%3D%220%22%2F%3E%3CmxCell%20id%3D%222%22%20value%3D%2223%22%20style%3D%22ellipse%3BwhiteSpace%3Dwrap%3Bhtml%3D1%3Baspect%3Dfixed%3BstrokeColor%3D%23006EAF%3BstrokeWidth%3D2%3BfillColor%3D%231ba1e2%3BfontColor%3D%23ffffff%3B%22%20vertex%3D%221%22%20parent%3D%221%22%3E%3CmxGeometry%20x%3D%22320%22%20y%3D%22120%22%20width%3D%2240%22%20height%3D%2240%22%20as%3D%22geometry%22%2F%3E%3C%2FmxCell%3E%3C%2Froot%3E%3C%2FmxGraphModel%3E&lt;/span&gt;" style="ellipse;whiteSpace=wrap;html=1;aspect=fixed;strokeColor=#006EAF;strokeWidth=2;fillColor=#1ba1e2;fontColor=#ffffff;" parent="1" vertex="1">
                    <mxGeometry x="200" y="180" width="40" height="40" as="geometry"/>
                </mxCell>
                <mxCell id="4" value="30" style="ellipse;whiteSpace=wrap;html=1;aspect=fixed;strokeColor=#006EAF;strokeWidth=2;fillColor=#1ba1e2;fontColor=#ffffff;" parent="1" vertex="1">
                    <mxGeometry x="440" y="180" width="40" height="40" as="geometry"/>
                </mxCell>
                <mxCell id="5" value="1" style="ellipse;whiteSpace=wrap;html=1;aspect=fixed;strokeColor=#006EAF;strokeWidth=2;fillColor=#1ba1e2;fontColor=#ffffff;" parent="1" vertex="1">
                    <mxGeometry x="140" y="240" width="40" height="40" as="geometry"/>
                </mxCell>
                <mxCell id="6" value="11" style="ellipse;whiteSpace=wrap;html=1;aspect=fixed;strokeColor=#006EAF;strokeWidth=2;fillColor=#1ba1e2;fontColor=#ffffff;" parent="1" vertex="1">
                    <mxGeometry x="260" y="240" width="40" height="40" as="geometry"/>
                </mxCell>
                <mxCell id="7" value="24" style="ellipse;whiteSpace=wrap;html=1;aspect=fixed;strokeColor=#006EAF;strokeWidth=2;fillColor=#1ba1e2;fontColor=#ffffff;" parent="1" vertex="1">
                    <mxGeometry x="380" y="240" width="40" height="40" as="geometry"/>
                </mxCell>
                <mxCell id="8" value="34" style="ellipse;whiteSpace=wrap;html=1;aspect=fixed;strokeColor=#006EAF;strokeWidth=2;fillColor=#1ba1e2;fontColor=#ffffff;" parent="1" vertex="1">
                    <mxGeometry x="500" y="240" width="40" height="40" as="geometry"/>
                </mxCell>
                <mxCell id="9" value="7" style="ellipse;whiteSpace=wrap;html=1;aspect=fixed;strokeColor=#006EAF;strokeWidth=2;fillColor=#1ba1e2;fontColor=#ffffff;" parent="1" vertex="1">
                    <mxGeometry x="210" y="300" width="40" height="40" as="geometry"/>
                </mxCell>
                <mxCell id="10" value="20" style="ellipse;whiteSpace=wrap;html=1;aspect=fixed;strokeColor=#006EAF;strokeWidth=2;fillColor=#1ba1e2;fontColor=#ffffff;" parent="1" vertex="1">
                    <mxGeometry x="310" y="300" width="40" height="40" as="geometry"/>
                </mxCell>
                <mxCell id="11" value="" style="endArrow=none;html=1;strokeColor=#000000;strokeWidth=2;" parent="1" source="3" target="2" edge="1">
                    <mxGeometry width="50" height="50" relative="1" as="geometry">
                        <mxPoint x="400" y="510" as="sourcePoint"/>
                        <mxPoint x="450" y="460" as="targetPoint"/>
                    </mxGeometry>
                </mxCell>
                <mxCell id="12" value="" style="endArrow=none;html=1;strokeColor=#000000;strokeWidth=2;" parent="1" source="4" target="2" edge="1">
                    <mxGeometry width="50" height="50" relative="1" as="geometry">
                        <mxPoint x="244.14213562373106" y="195.85786437626894" as="sourcePoint"/>
                        <mxPoint x="335.85786437626894" y="144.14213562373106" as="targetPoint"/>
                    </mxGeometry>
                </mxCell>
                <mxCell id="13" value="" style="endArrow=none;html=1;strokeColor=#000000;strokeWidth=2;" parent="1" source="3" target="5" edge="1">
                    <mxGeometry width="50" height="50" relative="1" as="geometry">
                        <mxPoint x="254.14213562373106" y="205.85786437626894" as="sourcePoint"/>
                        <mxPoint x="170" y="250" as="targetPoint"/>
                    </mxGeometry>
                </mxCell>
                <mxCell id="14" value="" style="endArrow=none;html=1;strokeColor=#000000;strokeWidth=2;" parent="1" source="6" target="3" edge="1">
                    <mxGeometry width="50" height="50" relative="1" as="geometry">
                        <mxPoint x="264.14213562373106" y="215.85786437626894" as="sourcePoint"/>
                        <mxPoint x="355.85786437626894" y="164.14213562373106" as="targetPoint"/>
                    </mxGeometry>
                </mxCell>
                <mxCell id="15" value="" style="endArrow=none;html=1;strokeColor=#000000;strokeWidth=2;" parent="1" source="7" target="4" edge="1">
                    <mxGeometry width="50" height="50" relative="1" as="geometry">
                        <mxPoint x="274.14213562373106" y="225.85786437626894" as="sourcePoint"/>
                        <mxPoint x="365.85786437626894" y="174.14213562373106" as="targetPoint"/>
                    </mxGeometry>
                </mxCell>
                <mxCell id="16" value="" style="endArrow=none;html=1;strokeColor=#000000;strokeWidth=2;" parent="1" source="8" target="4" edge="1">
                    <mxGeometry width="50" height="50" relative="1" as="geometry">
                        <mxPoint x="284.14213562373106" y="235.85786437626894" as="sourcePoint"/>
                        <mxPoint x="375.85786437626894" y="184.14213562373106" as="targetPoint"/>
                    </mxGeometry>
                </mxCell>
                <mxCell id="17" value="" style="endArrow=none;html=1;strokeColor=#000000;strokeWidth=2;" parent="1" source="10" target="6" edge="1">
                    <mxGeometry width="50" height="50" relative="1" as="geometry">
                        <mxPoint x="294.14213562373106" y="245.85786437626894" as="sourcePoint"/>
                        <mxPoint x="385.85786437626894" y="194.14213562373106" as="targetPoint"/>
                    </mxGeometry>
                </mxCell>
                <mxCell id="18" value="" style="endArrow=none;html=1;strokeColor=#000000;strokeWidth=2;" parent="1" source="6" target="9" edge="1">
                    <mxGeometry width="50" height="50" relative="1" as="geometry">
                        <mxPoint x="304.14213562373106" y="255.85786437626894" as="sourcePoint"/>
                        <mxPoint x="395.85786437626894" y="204.14213562373106" as="targetPoint"/>
                    </mxGeometry>
                </mxCell>
                <mxCell id="19" value="" style="endArrow=classic;html=1;curved=1;strokeColor=#97D077;strokeWidth=2;dashed=1;exitX=1;exitY=1;exitDx=0;exitDy=0;entryX=0.5;entryY=1;entryDx=0;entryDy=0;edgeStyle=orthogonalEdgeStyle;" parent="1" source="5" target="3" edge="1">
                    <mxGeometry width="50" height="50" relative="1" as="geometry">
                        <mxPoint x="390" y="530" as="sourcePoint"/>
                        <mxPoint x="440" y="480" as="targetPoint"/>
                    </mxGeometry>
                </mxCell>
                <mxCell id="20" value="" style="endArrow=classic;html=1;curved=1;strokeColor=#97D077;strokeWidth=2;dashed=1;exitX=1;exitY=1;exitDx=0;exitDy=0;entryX=0.5;entryY=1;entryDx=0;entryDy=0;edgeStyle=orthogonalEdgeStyle;" parent="1" source="9" target="6" edge="1">
                    <mxGeometry width="50" height="50" relative="1" as="geometry">
                        <mxPoint x="184.14213562373106" y="284.14213562373106" as="sourcePoint"/>
                        <mxPoint x="230" y="230" as="targetPoint"/>
                    </mxGeometry>
                </mxCell>
                <mxCell id="21" value="" style="endArrow=classic;html=1;curved=1;strokeColor=#97D077;strokeWidth=2;dashed=1;exitX=1;exitY=1;exitDx=0;exitDy=0;entryX=0.5;entryY=1;entryDx=0;entryDy=0;edgeStyle=orthogonalEdgeStyle;" parent="1" source="10" target="2" edge="1">
                    <mxGeometry width="50" height="50" relative="1" as="geometry">
                        <mxPoint x="194.14213562373106" y="294.14213562373106" as="sourcePoint"/>
                        <mxPoint x="240" y="240" as="targetPoint"/>
                        <Array as="points">
                            <mxPoint x="370" y="334"/>
                            <mxPoint x="370" y="220"/>
                            <mxPoint x="340" y="220"/>
                        </Array>
                    </mxGeometry>
                </mxCell>
                <mxCell id="22" value="" style="endArrow=classic;html=1;curved=1;strokeColor=#97D077;strokeWidth=2;dashed=1;exitX=1;exitY=1;exitDx=0;exitDy=0;edgeStyle=orthogonalEdgeStyle;" parent="1" source="7" target="4" edge="1">
                    <mxGeometry width="50" height="50" relative="1" as="geometry">
                        <mxPoint x="204.14213562373106" y="304.14213562373106" as="sourcePoint"/>
                        <mxPoint x="250" y="250" as="targetPoint"/>
                    </mxGeometry>
                </mxCell>
                <mxCell id="23" value="" style="endArrow=classic;html=1;curved=1;strokeColor=#97D077;strokeWidth=2;dashed=1;exitX=1;exitY=1;exitDx=0;exitDy=0;edgeStyle=orthogonalEdgeStyle;entryX=0.5;entryY=0;entryDx=0;entryDy=0;" parent="1" source="8" target="24" edge="1">
                    <mxGeometry width="50" height="50" relative="1" as="geometry">
                        <mxPoint x="214.14213562373106" y="314.14213562373106" as="sourcePoint"/>
                        <mxPoint x="600" y="220" as="targetPoint"/>
                    </mxGeometry>
                </mxCell>
                <mxCell id="24" value="&lt;font color=&quot;#000000&quot; style=&quot;font-size: 14px&quot;&gt;&lt;b&gt;None&lt;/b&gt;&lt;/font&gt;" style="text;html=1;strokeColor=none;fillColor=none;align=center;verticalAlign=middle;whiteSpace=wrap;rounded=0;" parent="1" vertex="1">
                    <mxGeometry x="550" y="320" width="40" height="20" as="geometry"/>
                </mxCell>
                <mxCell id="9h2rrl9LZfiFBV7XHZsN-26" value="" style="endArrow=classic;html=1;dashed=1;strokeColor=#97D077;strokeWidth=2;" parent="1" edge="1">
                    <mxGeometry width="50" height="50" relative="1" as="geometry">
                        <mxPoint x="500" y="119.5" as="sourcePoint"/>
                        <mxPoint x="550" y="119.5" as="targetPoint"/>
                    </mxGeometry>
                </mxCell>
                <mxCell id="9h2rrl9LZfiFBV7XHZsN-27" value="&lt;font color=&quot;#000000&quot; style=&quot;font-size: 14px&quot;&gt;&lt;b&gt;right thread&lt;/b&gt;&lt;/font&gt;" style="text;html=1;strokeColor=none;fillColor=none;align=center;verticalAlign=middle;whiteSpace=wrap;rounded=0;" parent="1" vertex="1">
                    <mxGeometry x="550" y="110" width="90" height="20" as="geometry"/>
                </mxCell>
            </root>
        </mxGraphModel>
    </diagram>
    <diagram name="left_tbst" id="1JhAz2EjRRtzzYpOtvOr">
        &#xa;        
        <mxGraphModel dx="1705" dy="844" grid="1" gridSize="10" guides="1" tooltips="1" connect="1" arrows="1" fold="1" page="1" pageScale="1" pageWidth="827" pageHeight="1169" math="0" shadow="0">
            &#xa;            
            <root>
                &#xa;                
                <mxCell id="I0PisWtnuR_gWGErvB_d-0"/>
                &#xa;                
                <mxCell id="I0PisWtnuR_gWGErvB_d-1" parent="I0PisWtnuR_gWGErvB_d-0"/>
                &#xa;                
                <mxCell id="I0PisWtnuR_gWGErvB_d-2" value="" style="rounded=0;whiteSpace=wrap;html=1;strokeColor=none;fillColor=#FFFFFF;" parent="I0PisWtnuR_gWGErvB_d-1" vertex="1">
                    &#xa;                    
                    <mxGeometry x="60" y="80" width="500" height="280" as="geometry"/>
                    &#xa;                
                </mxCell>
                &#xa;                
                <mxCell id="I0PisWtnuR_gWGErvB_d-3" value="23" style="ellipse;whiteSpace=wrap;html=1;aspect=fixed;strokeColor=#006EAF;strokeWidth=2;fillColor=#1ba1e2;fontColor=#ffffff;" parent="I0PisWtnuR_gWGErvB_d-1" vertex="1">
                    &#xa;                    
                    <mxGeometry x="320" y="100" width="40" height="40" as="geometry"/>
                    &#xa;                
                </mxCell>
                &#xa;                
                <mxCell id="I0PisWtnuR_gWGErvB_d-4" value="4&lt;span style=&quot;color: rgba(0 , 0 , 0 , 0) ; font-family: monospace ; font-size: 0px&quot;&gt;%3CmxGraphModel%3E%3Croot%3E%3CmxCell%20id%3D%220%22%2F%3E%3CmxCell%20id%3D%221%22%20parent%3D%220%22%2F%3E%3CmxCell%20id%3D%222%22%20value%3D%2223%22%20style%3D%22ellipse%3BwhiteSpace%3Dwrap%3Bhtml%3D1%3Baspect%3Dfixed%3BstrokeColor%3D%23006EAF%3BstrokeWidth%3D2%3BfillColor%3D%231ba1e2%3BfontColor%3D%23ffffff%3B%22%20vertex%3D%221%22%20parent%3D%221%22%3E%3CmxGeometry%20x%3D%22320%22%20y%3D%22120%22%20width%3D%2240%22%20height%3D%2240%22%20as%3D%22geometry%22%2F%3E%3C%2FmxCell%3E%3C%2Froot%3E%3C%2FmxGraphModel%3E&lt;/span&gt;" style="ellipse;whiteSpace=wrap;html=1;aspect=fixed;strokeColor=#006EAF;strokeWidth=2;fillColor=#1ba1e2;fontColor=#ffffff;" parent="I0PisWtnuR_gWGErvB_d-1" vertex="1">
                    &#xa;                    
                    <mxGeometry x="200" y="180" width="40" height="40" as="geometry"/>
                    &#xa;                
                </mxCell>
                &#xa;                
                <mxCell id="I0PisWtnuR_gWGErvB_d-5" value="30" style="ellipse;whiteSpace=wrap;html=1;aspect=fixed;strokeColor=#006EAF;strokeWidth=2;fillColor=#1ba1e2;fontColor=#ffffff;" parent="I0PisWtnuR_gWGErvB_d-1" vertex="1">
                    &#xa;                    
                    <mxGeometry x="440" y="180" width="40" height="40" as="geometry"/>
                    &#xa;                
                </mxCell>
                &#xa;                
                <mxCell id="I0PisWtnuR_gWGErvB_d-6" value="1" style="ellipse;whiteSpace=wrap;html=1;aspect=fixed;strokeColor=#006EAF;strokeWidth=2;fillColor=#1ba1e2;fontColor=#ffffff;" parent="I0PisWtnuR_gWGErvB_d-1" vertex="1">
                    &#xa;                    
                    <mxGeometry x="140" y="240" width="40" height="40" as="geometry"/>
                    &#xa;                
                </mxCell>
                &#xa;                
                <mxCell id="I0PisWtnuR_gWGErvB_d-7" value="11" style="ellipse;whiteSpace=wrap;html=1;aspect=fixed;strokeColor=#006EAF;strokeWidth=2;fillColor=#1ba1e2;fontColor=#ffffff;" parent="I0PisWtnuR_gWGErvB_d-1" vertex="1">
                    &#xa;                    
                    <mxGeometry x="260" y="240" width="40" height="40" as="geometry"/>
                    &#xa;                
                </mxCell>
                &#xa;                
                <mxCell id="I0PisWtnuR_gWGErvB_d-8" value="24" style="ellipse;whiteSpace=wrap;html=1;aspect=fixed;strokeColor=#006EAF;strokeWidth=2;fillColor=#1ba1e2;fontColor=#ffffff;" parent="I0PisWtnuR_gWGErvB_d-1" vertex="1">
                    &#xa;                    
                    <mxGeometry x="380" y="240" width="40" height="40" as="geometry"/>
                    &#xa;                
                </mxCell>
                &#xa;                
                <mxCell id="I0PisWtnuR_gWGErvB_d-9" value="34" style="ellipse;whiteSpace=wrap;html=1;aspect=fixed;strokeColor=#006EAF;strokeWidth=2;fillColor=#1ba1e2;fontColor=#ffffff;" parent="I0PisWtnuR_gWGErvB_d-1" vertex="1">
                    &#xa;                    
                    <mxGeometry x="500" y="240" width="40" height="40" as="geometry"/>
                    &#xa;                
                </mxCell>
                &#xa;                
                <mxCell id="I0PisWtnuR_gWGErvB_d-10" value="7" style="ellipse;whiteSpace=wrap;html=1;aspect=fixed;strokeColor=#006EAF;strokeWidth=2;fillColor=#1ba1e2;fontColor=#ffffff;" parent="I0PisWtnuR_gWGErvB_d-1" vertex="1">
                    &#xa;                    
                    <mxGeometry x="210" y="300" width="40" height="40" as="geometry"/>
                    &#xa;                
                </mxCell>
                &#xa;                
                <mxCell id="I0PisWtnuR_gWGErvB_d-11" value="20" style="ellipse;whiteSpace=wrap;html=1;aspect=fixed;strokeColor=#006EAF;strokeWidth=2;fillColor=#1ba1e2;fontColor=#ffffff;" parent="I0PisWtnuR_gWGErvB_d-1" vertex="1">
                    &#xa;                    
                    <mxGeometry x="310" y="300" width="40" height="40" as="geometry"/>
                    &#xa;                
                </mxCell>
                &#xa;                
                <mxCell id="I0PisWtnuR_gWGErvB_d-12" value="" style="endArrow=none;html=1;strokeColor=#000000;strokeWidth=2;" parent="I0PisWtnuR_gWGErvB_d-1" source="I0PisWtnuR_gWGErvB_d-4" target="I0PisWtnuR_gWGErvB_d-3" edge="1">
                    &#xa;                    
                    <mxGeometry width="50" height="50" relative="1" as="geometry">
                        &#xa;                        
                        <mxPoint x="400" y="510" as="sourcePoint"/>
                        &#xa;                        
                        <mxPoint x="450" y="460" as="targetPoint"/>
                        &#xa;                    
                    </mxGeometry>
                    &#xa;                
                </mxCell>
                &#xa;                
                <mxCell id="I0PisWtnuR_gWGErvB_d-13" value="" style="endArrow=none;html=1;strokeColor=#000000;strokeWidth=2;" parent="I0PisWtnuR_gWGErvB_d-1" source="I0PisWtnuR_gWGErvB_d-5" target="I0PisWtnuR_gWGErvB_d-3" edge="1">
                    &#xa;                    
                    <mxGeometry width="50" height="50" relative="1" as="geometry">
                        &#xa;                        
                        <mxPoint x="244.14213562373106" y="195.85786437626894" as="sourcePoint"/>
                        &#xa;                        
                        <mxPoint x="335.85786437626894" y="144.14213562373106" as="targetPoint"/>
                        &#xa;                    
                    </mxGeometry>
                    &#xa;                
                </mxCell>
                &#xa;                
                <mxCell id="I0PisWtnuR_gWGErvB_d-14" value="" style="endArrow=none;html=1;strokeColor=#000000;strokeWidth=2;" parent="I0PisWtnuR_gWGErvB_d-1" source="I0PisWtnuR_gWGErvB_d-4" target="I0PisWtnuR_gWGErvB_d-6" edge="1">
                    &#xa;                    
                    <mxGeometry width="50" height="50" relative="1" as="geometry">
                        &#xa;                        
                        <mxPoint x="254.14213562373106" y="205.85786437626894" as="sourcePoint"/>
                        &#xa;                        
                        <mxPoint x="130" y="220" as="targetPoint"/>
                        &#xa;                    
                    </mxGeometry>
                    &#xa;                
                </mxCell>
                &#xa;                
                <mxCell id="I0PisWtnuR_gWGErvB_d-15" value="" style="endArrow=none;html=1;strokeColor=#000000;strokeWidth=2;" parent="I0PisWtnuR_gWGErvB_d-1" source="I0PisWtnuR_gWGErvB_d-7" target="I0PisWtnuR_gWGErvB_d-4" edge="1">
                    &#xa;                    
                    <mxGeometry width="50" height="50" relative="1" as="geometry">
                        &#xa;                        
                        <mxPoint x="264.14213562373106" y="215.85786437626894" as="sourcePoint"/>
                        &#xa;                        
                        <mxPoint x="355.85786437626894" y="164.14213562373106" as="targetPoint"/>
                        &#xa;                    
                    </mxGeometry>
                    &#xa;                
                </mxCell>
                &#xa;                
                <mxCell id="I0PisWtnuR_gWGErvB_d-16" value="" style="endArrow=none;html=1;strokeColor=#000000;strokeWidth=2;" parent="I0PisWtnuR_gWGErvB_d-1" source="I0PisWtnuR_gWGErvB_d-8" target="I0PisWtnuR_gWGErvB_d-5" edge="1">
                    &#xa;                    
                    <mxGeometry width="50" height="50" relative="1" as="geometry">
                        &#xa;                        
                        <mxPoint x="274.14213562373106" y="225.85786437626894" as="sourcePoint"/>
                        &#xa;                        
                        <mxPoint x="365.85786437626894" y="174.14213562373106" as="targetPoint"/>
                        &#xa;                    
                    </mxGeometry>
                    &#xa;                
                </mxCell>
                &#xa;                
                <mxCell id="I0PisWtnuR_gWGErvB_d-17" value="" style="endArrow=none;html=1;strokeColor=#000000;strokeWidth=2;" parent="I0PisWtnuR_gWGErvB_d-1" source="I0PisWtnuR_gWGErvB_d-9" target="I0PisWtnuR_gWGErvB_d-5" edge="1">
                    &#xa;                    
                    <mxGeometry width="50" height="50" relative="1" as="geometry">
                        &#xa;                        
                        <mxPoint x="284.14213562373106" y="235.85786437626894" as="sourcePoint"/>
                        &#xa;                        
                        <mxPoint x="375.85786437626894" y="184.14213562373106" as="targetPoint"/>
                        &#xa;                    
                    </mxGeometry>
                    &#xa;                
                </mxCell>
                &#xa;                
                <mxCell id="I0PisWtnuR_gWGErvB_d-18" value="" style="endArrow=none;html=1;strokeColor=#000000;strokeWidth=2;" parent="I0PisWtnuR_gWGErvB_d-1" source="I0PisWtnuR_gWGErvB_d-11" target="I0PisWtnuR_gWGErvB_d-7" edge="1">
                    &#xa;                    
                    <mxGeometry width="50" height="50" relative="1" as="geometry">
                        &#xa;                        
                        <mxPoint x="294.14213562373106" y="245.85786437626894" as="sourcePoint"/>
                        &#xa;                        
                        <mxPoint x="385.85786437626894" y="194.14213562373106" as="targetPoint"/>
                        &#xa;                    
                    </mxGeometry>
                    &#xa;                
                </mxCell>
                &#xa;                
                <mxCell id="I0PisWtnuR_gWGErvB_d-19" value="" style="endArrow=none;html=1;strokeColor=#000000;strokeWidth=2;" parent="I0PisWtnuR_gWGErvB_d-1" source="I0PisWtnuR_gWGErvB_d-7" target="I0PisWtnuR_gWGErvB_d-10" edge="1">
                    &#xa;                    
                    <mxGeometry width="50" height="50" relative="1" as="geometry">
                        &#xa;                        
                        <mxPoint x="304.14213562373106" y="255.85786437626894" as="sourcePoint"/>
                        &#xa;                        
                        <mxPoint x="395.85786437626894" y="204.14213562373106" as="targetPoint"/>
                        &#xa;                    
                    </mxGeometry>
                    &#xa;                
                </mxCell>
                &#xa;                
                <mxCell id="I0PisWtnuR_gWGErvB_d-20" value="" style="endArrow=classic;html=1;curved=1;strokeColor=#FFD966;strokeWidth=2;dashed=1;exitX=0;exitY=1;exitDx=0;exitDy=0;entryX=0.5;entryY=1;entryDx=0;entryDy=0;edgeStyle=orthogonalEdgeStyle;" parent="I0PisWtnuR_gWGErvB_d-1" source="I0PisWtnuR_gWGErvB_d-10" target="I0PisWtnuR_gWGErvB_d-4" edge="1">
                    &#xa;                    
                    <mxGeometry width="50" height="50" relative="1" as="geometry">
                        &#xa;                        
                        <mxPoint x="390" y="530" as="sourcePoint"/>
                        &#xa;                        
                        <mxPoint x="440" y="480" as="targetPoint"/>
                        &#xa;                        
                        <Array as="points">
                            &#xa;                            
                            <mxPoint x="190" y="334"/>
                            &#xa;                            
                            <mxPoint x="190" y="280"/>
                            &#xa;                            
                            <mxPoint x="220" y="280"/>
                            &#xa;                        
                        </Array>
                        &#xa;                    
                    </mxGeometry>
                    &#xa;                
                </mxCell>
                &#xa;                
                <mxCell id="I0PisWtnuR_gWGErvB_d-21" value="" style="endArrow=classic;html=1;curved=1;strokeColor=#FFD966;strokeWidth=2;dashed=1;exitX=0;exitY=1;exitDx=0;exitDy=0;entryX=0.5;entryY=1;entryDx=0;entryDy=0;edgeStyle=orthogonalEdgeStyle;" parent="I0PisWtnuR_gWGErvB_d-1" source="I0PisWtnuR_gWGErvB_d-11" target="I0PisWtnuR_gWGErvB_d-7" edge="1">
                    &#xa;                    
                    <mxGeometry width="50" height="50" relative="1" as="geometry">
                        &#xa;                        
                        <mxPoint x="184.14213562373106" y="284.14213562373106" as="sourcePoint"/>
                        &#xa;                        
                        <mxPoint x="230" y="230" as="targetPoint"/>
                        &#xa;                    
                    </mxGeometry>
                    &#xa;                
                </mxCell>
                &#xa;                
                <mxCell id="I0PisWtnuR_gWGErvB_d-22" value="" style="endArrow=classic;html=1;curved=1;strokeColor=#FFD966;strokeWidth=2;dashed=1;exitX=0;exitY=1;exitDx=0;exitDy=0;entryX=0.5;entryY=1;entryDx=0;entryDy=0;edgeStyle=orthogonalEdgeStyle;" parent="I0PisWtnuR_gWGErvB_d-1" source="I0PisWtnuR_gWGErvB_d-8" target="I0PisWtnuR_gWGErvB_d-3" edge="1">
                    &#xa;                    
                    <mxGeometry width="50" height="50" relative="1" as="geometry">
                        &#xa;                        
                        <mxPoint x="194.14213562373106" y="294.14213562373106" as="sourcePoint"/>
                        &#xa;                        
                        <mxPoint x="240" y="240" as="targetPoint"/>
                        &#xa;                        
                        <Array as="points">
                            &#xa;                            
                            <mxPoint x="386" y="290"/>
                            &#xa;                            
                            <mxPoint x="340" y="290"/>
                            &#xa;                        
                        </Array>
                        &#xa;                    
                    </mxGeometry>
                    &#xa;                
                </mxCell>
                &#xa;                
                <mxCell id="I0PisWtnuR_gWGErvB_d-23" value="" style="endArrow=classic;html=1;curved=1;strokeColor=#FFD966;strokeWidth=2;dashed=1;exitX=0;exitY=1;exitDx=0;exitDy=0;edgeStyle=orthogonalEdgeStyle;" parent="I0PisWtnuR_gWGErvB_d-1" source="I0PisWtnuR_gWGErvB_d-9" target="I0PisWtnuR_gWGErvB_d-5" edge="1">
                    &#xa;                    
                    <mxGeometry width="50" height="50" relative="1" as="geometry">
                        &#xa;                        
                        <mxPoint x="204.14213562373106" y="304.14213562373106" as="sourcePoint"/>
                        &#xa;                        
                        <mxPoint x="250" y="250" as="targetPoint"/>
                        &#xa;                    
                    </mxGeometry>
                    &#xa;                
                </mxCell>
                &#xa;                
                <mxCell id="I0PisWtnuR_gWGErvB_d-24" value="" style="endArrow=classic;html=1;curved=1;strokeColor=#FFD966;strokeWidth=2;dashed=1;edgeStyle=orthogonalEdgeStyle;entryX=0.5;entryY=0;entryDx=0;entryDy=0;exitX=0;exitY=1;exitDx=0;exitDy=0;" parent="I0PisWtnuR_gWGErvB_d-1" source="I0PisWtnuR_gWGErvB_d-6" target="I0PisWtnuR_gWGErvB_d-25" edge="1">
                    &#xa;                    
                    <mxGeometry width="50" height="50" relative="1" as="geometry">
                        &#xa;                        
                        <mxPoint x="450" y="370" as="sourcePoint"/>
                        &#xa;                        
                        <mxPoint x="600" y="220" as="targetPoint"/>
                        &#xa;                    
                    </mxGeometry>
                    &#xa;                
                </mxCell>
                &#xa;                
                <mxCell id="I0PisWtnuR_gWGErvB_d-25" value="&lt;font color=&quot;#000000&quot; style=&quot;font-size: 14px&quot;&gt;&lt;b&gt;None&lt;/b&gt;&lt;/font&gt;" style="text;html=1;strokeColor=none;fillColor=none;align=center;verticalAlign=middle;whiteSpace=wrap;rounded=0;" parent="I0PisWtnuR_gWGErvB_d-1" vertex="1">
                    &#xa;                    
                    <mxGeometry x="80" y="300" width="40" height="20" as="geometry"/>
                    &#xa;                
                </mxCell>
                &#xa;                
                <mxCell id="Z4K5ytgXyG94DnNoAzyC-0" value="" style="endArrow=classic;html=1;dashed=1;strokeColor=#FFD966;strokeWidth=2;" parent="I0PisWtnuR_gWGErvB_d-1" edge="1">
                    &#xa;                    
                    <mxGeometry width="50" height="50" relative="1" as="geometry">
                        &#xa;                        
                        <mxPoint x="80" y="119.5" as="sourcePoint"/>
                        &#xa;                        
                        <mxPoint x="130" y="119.5" as="targetPoint"/>
                        &#xa;                    
                    </mxGeometry>
                    &#xa;                
                </mxCell>
                &#xa;                
                <mxCell id="Z4K5ytgXyG94DnNoAzyC-1" value="&lt;font color=&quot;#000000&quot; style=&quot;font-size: 14px&quot;&gt;&lt;b&gt;left thread&lt;/b&gt;&lt;/font&gt;" style="text;html=1;strokeColor=none;fillColor=none;align=center;verticalAlign=middle;whiteSpace=wrap;rounded=0;" parent="I0PisWtnuR_gWGErvB_d-1" vertex="1">
                    &#xa;                    
                    <mxGeometry x="130" y="110" width="90" height="20" as="geometry"/>
                    &#xa;                
                </mxCell>
                &#xa;            
            </root>
            &#xa;        
        </mxGraphModel>
        &#xa;    
    </diagram>
    <diagram name="double_tbst" id="Laxm_PpG3NpHHtnrC9jd">
        <mxGraphModel dx="1705" dy="844" grid="1" gridSize="10" guides="1" tooltips="1" connect="1" arrows="1" fold="1" page="1" pageScale="1" pageWidth="827" pageHeight="1169" math="0" shadow="0">
            <root>
                <mxCell id="5BAmmzw00M4IaMCcG9dD-0"/>
                <mxCell id="5BAmmzw00M4IaMCcG9dD-1" parent="5BAmmzw00M4IaMCcG9dD-0"/>
                <mxCell id="5BAmmzw00M4IaMCcG9dD-2" value="" style="rounded=0;whiteSpace=wrap;html=1;strokeColor=none;fillColor=#FFFFFF;" parent="5BAmmzw00M4IaMCcG9dD-1" vertex="1">
                    <mxGeometry x="20" y="60" width="620" height="320" as="geometry"/>
                </mxCell>
                <mxCell id="5BAmmzw00M4IaMCcG9dD-4" value="4&lt;span style=&quot;color: rgba(0 , 0 , 0 , 0) ; font-family: monospace ; font-size: 0px&quot;&gt;%3CmxGraphModel%3E%3Croot%3E%3CmxCell%20id%3D%220%22%2F%3E%3CmxCell%20id%3D%221%22%20parent%3D%220%22%2F%3E%3CmxCell%20id%3D%222%22%20value%3D%2223%22%20style%3D%22ellipse%3BwhiteSpace%3Dwrap%3Bhtml%3D1%3Baspect%3Dfixed%3BstrokeColor%3D%23006EAF%3BstrokeWidth%3D2%3BfillColor%3D%231ba1e2%3BfontColor%3D%23ffffff%3B%22%20vertex%3D%221%22%20parent%3D%221%22%3E%3CmxGeometry%20x%3D%22320%22%20y%3D%22120%22%20width%3D%2240%22%20height%3D%2240%22%20as%3D%22geometry%22%2F%3E%3C%2FmxCell%3E%3C%2Froot%3E%3C%2FmxGraphModel%3E&lt;/span&gt;" style="ellipse;whiteSpace=wrap;html=1;aspect=fixed;strokeColor=#006EAF;strokeWidth=2;fillColor=#1ba1e2;fontColor=#ffffff;" parent="5BAmmzw00M4IaMCcG9dD-1" vertex="1">
                    <mxGeometry x="160" y="180" width="40" height="40" as="geometry"/>
                </mxCell>
                <mxCell id="5BAmmzw00M4IaMCcG9dD-5" value="30" style="ellipse;whiteSpace=wrap;html=1;aspect=fixed;strokeColor=#006EAF;strokeWidth=2;fillColor=#1ba1e2;fontColor=#ffffff;" parent="5BAmmzw00M4IaMCcG9dD-1" vertex="1">
                    <mxGeometry x="480" y="180" width="40" height="40" as="geometry"/>
                </mxCell>
                <mxCell id="5BAmmzw00M4IaMCcG9dD-6" value="1" style="ellipse;whiteSpace=wrap;html=1;aspect=fixed;strokeColor=#006EAF;strokeWidth=2;fillColor=#1ba1e2;fontColor=#ffffff;" parent="5BAmmzw00M4IaMCcG9dD-1" vertex="1">
                    <mxGeometry x="100" y="240" width="40" height="40" as="geometry"/>
                </mxCell>
                <mxCell id="5BAmmzw00M4IaMCcG9dD-7" value="11" style="ellipse;whiteSpace=wrap;html=1;aspect=fixed;strokeColor=#006EAF;strokeWidth=2;fillColor=#1ba1e2;fontColor=#ffffff;" parent="5BAmmzw00M4IaMCcG9dD-1" vertex="1">
                    <mxGeometry x="220" y="240" width="40" height="40" as="geometry"/>
                </mxCell>
                <mxCell id="5BAmmzw00M4IaMCcG9dD-8" value="24" style="ellipse;whiteSpace=wrap;html=1;aspect=fixed;strokeColor=#006EAF;strokeWidth=2;fillColor=#1ba1e2;fontColor=#ffffff;" parent="5BAmmzw00M4IaMCcG9dD-1" vertex="1">
                    <mxGeometry x="420" y="240" width="40" height="40" as="geometry"/>
                </mxCell>
                <mxCell id="5BAmmzw00M4IaMCcG9dD-9" value="34" style="ellipse;whiteSpace=wrap;html=1;aspect=fixed;strokeColor=#006EAF;strokeWidth=2;fillColor=#1ba1e2;fontColor=#ffffff;" parent="5BAmmzw00M4IaMCcG9dD-1" vertex="1">
                    <mxGeometry x="540" y="240" width="40" height="40" as="geometry"/>
                </mxCell>
                <mxCell id="5BAmmzw00M4IaMCcG9dD-10" value="7" style="ellipse;whiteSpace=wrap;html=1;aspect=fixed;strokeColor=#006EAF;strokeWidth=2;fillColor=#1ba1e2;fontColor=#ffffff;" parent="5BAmmzw00M4IaMCcG9dD-1" vertex="1">
                    <mxGeometry x="170" y="300" width="40" height="40" as="geometry"/>
                </mxCell>
                <mxCell id="5BAmmzw00M4IaMCcG9dD-11" value="20" style="ellipse;whiteSpace=wrap;html=1;aspect=fixed;strokeColor=#006EAF;strokeWidth=2;fillColor=#1ba1e2;fontColor=#ffffff;" parent="5BAmmzw00M4IaMCcG9dD-1" vertex="1">
                    <mxGeometry x="270" y="300" width="40" height="40" as="geometry"/>
                </mxCell>
                <mxCell id="5BAmmzw00M4IaMCcG9dD-12" value="" style="endArrow=none;html=1;strokeColor=#000000;strokeWidth=2;" parent="5BAmmzw00M4IaMCcG9dD-1" source="5BAmmzw00M4IaMCcG9dD-4" target="5BAmmzw00M4IaMCcG9dD-3" edge="1">
                    <mxGeometry width="50" height="50" relative="1" as="geometry">
                        <mxPoint x="400" y="510" as="sourcePoint"/>
                        <mxPoint x="450" y="460" as="targetPoint"/>
                    </mxGeometry>
                </mxCell>
                <mxCell id="5BAmmzw00M4IaMCcG9dD-13" value="" style="endArrow=none;html=1;strokeColor=#000000;strokeWidth=2;" parent="5BAmmzw00M4IaMCcG9dD-1" source="5BAmmzw00M4IaMCcG9dD-5" target="5BAmmzw00M4IaMCcG9dD-3" edge="1">
                    <mxGeometry width="50" height="50" relative="1" as="geometry">
                        <mxPoint x="244.14213562373106" y="195.85786437626894" as="sourcePoint"/>
                        <mxPoint x="350" y="120" as="targetPoint"/>
                    </mxGeometry>
                </mxCell>
                <mxCell id="5BAmmzw00M4IaMCcG9dD-14" value="" style="endArrow=none;html=1;strokeColor=#000000;strokeWidth=2;" parent="5BAmmzw00M4IaMCcG9dD-1" source="5BAmmzw00M4IaMCcG9dD-4" target="5BAmmzw00M4IaMCcG9dD-6" edge="1">
                    <mxGeometry width="50" height="50" relative="1" as="geometry">
                        <mxPoint x="214.14213562373106" y="205.85786437626894" as="sourcePoint"/>
                        <mxPoint x="90" y="220" as="targetPoint"/>
                    </mxGeometry>
                </mxCell>
                <mxCell id="5BAmmzw00M4IaMCcG9dD-15" value="" style="endArrow=none;html=1;strokeColor=#000000;strokeWidth=2;" parent="5BAmmzw00M4IaMCcG9dD-1" source="5BAmmzw00M4IaMCcG9dD-7" target="5BAmmzw00M4IaMCcG9dD-4" edge="1">
                    <mxGeometry width="50" height="50" relative="1" as="geometry">
                        <mxPoint x="224.14213562373106" y="215.85786437626894" as="sourcePoint"/>
                        <mxPoint x="315.85786437626894" y="164.14213562373106" as="targetPoint"/>
                    </mxGeometry>
                </mxCell>
                <mxCell id="5BAmmzw00M4IaMCcG9dD-16" value="" style="endArrow=none;html=1;strokeColor=#000000;strokeWidth=2;" parent="5BAmmzw00M4IaMCcG9dD-1" source="5BAmmzw00M4IaMCcG9dD-8" target="5BAmmzw00M4IaMCcG9dD-5" edge="1">
                    <mxGeometry width="50" height="50" relative="1" as="geometry">
                        <mxPoint x="314.14213562373106" y="225.85786437626894" as="sourcePoint"/>
                        <mxPoint x="405.85786437626894" y="174.14213562373106" as="targetPoint"/>
                    </mxGeometry>
                </mxCell>
                <mxCell id="5BAmmzw00M4IaMCcG9dD-17" value="" style="endArrow=none;html=1;strokeColor=#000000;strokeWidth=2;exitX=0;exitY=0;exitDx=0;exitDy=0;" parent="5BAmmzw00M4IaMCcG9dD-1" source="5BAmmzw00M4IaMCcG9dD-9" target="5BAmmzw00M4IaMCcG9dD-5" edge="1">
                    <mxGeometry width="50" height="50" relative="1" as="geometry">
                        <mxPoint x="324.14213562373106" y="235.85786437626894" as="sourcePoint"/>
                        <mxPoint x="415.85786437626894" y="184.14213562373106" as="targetPoint"/>
                    </mxGeometry>
                </mxCell>
                <mxCell id="5BAmmzw00M4IaMCcG9dD-18" value="" style="endArrow=none;html=1;strokeColor=#000000;strokeWidth=2;" parent="5BAmmzw00M4IaMCcG9dD-1" source="5BAmmzw00M4IaMCcG9dD-11" target="5BAmmzw00M4IaMCcG9dD-7" edge="1">
                    <mxGeometry width="50" height="50" relative="1" as="geometry">
                        <mxPoint x="254.14213562373106" y="245.85786437626894" as="sourcePoint"/>
                        <mxPoint x="345.85786437626894" y="194.14213562373106" as="targetPoint"/>
                    </mxGeometry>
                </mxCell>
                <mxCell id="5BAmmzw00M4IaMCcG9dD-19" value="" style="endArrow=none;html=1;strokeColor=#000000;strokeWidth=2;" parent="5BAmmzw00M4IaMCcG9dD-1" source="5BAmmzw00M4IaMCcG9dD-7" target="5BAmmzw00M4IaMCcG9dD-10" edge="1">
                    <mxGeometry width="50" height="50" relative="1" as="geometry">
                        <mxPoint x="264.14213562373106" y="255.85786437626894" as="sourcePoint"/>
                        <mxPoint x="355.85786437626894" y="204.14213562373106" as="targetPoint"/>
                    </mxGeometry>
                </mxCell>
                <mxCell id="5BAmmzw00M4IaMCcG9dD-20" value="" style="endArrow=classic;html=1;curved=1;strokeColor=#FFD966;strokeWidth=2;dashed=1;exitX=0;exitY=1;exitDx=0;exitDy=0;entryX=0.5;entryY=1;entryDx=0;entryDy=0;edgeStyle=orthogonalEdgeStyle;" parent="5BAmmzw00M4IaMCcG9dD-1" source="5BAmmzw00M4IaMCcG9dD-10" target="5BAmmzw00M4IaMCcG9dD-4" edge="1">
                    <mxGeometry width="50" height="50" relative="1" as="geometry">
                        <mxPoint x="350" y="530" as="sourcePoint"/>
                        <mxPoint x="400" y="480" as="targetPoint"/>
                        <Array as="points">
                            <mxPoint x="176" y="350"/>
                            <mxPoint x="150" y="350"/>
                            <mxPoint x="150" y="280"/>
                            <mxPoint x="180" y="280"/>
                        </Array>
                    </mxGeometry>
                </mxCell>
                <mxCell id="5BAmmzw00M4IaMCcG9dD-21" value="" style="endArrow=classic;html=1;curved=1;strokeColor=#FFD966;strokeWidth=2;dashed=1;exitX=0;exitY=1;exitDx=0;exitDy=0;entryX=0.5;entryY=1;entryDx=0;entryDy=0;edgeStyle=orthogonalEdgeStyle;" parent="5BAmmzw00M4IaMCcG9dD-1" source="5BAmmzw00M4IaMCcG9dD-11" target="5BAmmzw00M4IaMCcG9dD-7" edge="1">
                    <mxGeometry width="50" height="50" relative="1" as="geometry">
                        <mxPoint x="144.14213562373106" y="284.14213562373106" as="sourcePoint"/>
                        <mxPoint x="190" y="230" as="targetPoint"/>
                        <Array as="points">
                            <mxPoint x="276" y="350"/>
                            <mxPoint x="240" y="350"/>
                        </Array>
                    </mxGeometry>
                </mxCell>
                <mxCell id="5BAmmzw00M4IaMCcG9dD-23" value="" style="endArrow=classic;html=1;curved=1;strokeColor=#FFD966;strokeWidth=2;dashed=1;exitX=0;exitY=1;exitDx=0;exitDy=0;edgeStyle=orthogonalEdgeStyle;" parent="5BAmmzw00M4IaMCcG9dD-1" source="5BAmmzw00M4IaMCcG9dD-9" target="5BAmmzw00M4IaMCcG9dD-5" edge="1">
                    <mxGeometry width="50" height="50" relative="1" as="geometry">
                        <mxPoint x="244.14213562373106" y="304.14213562373106" as="sourcePoint"/>
                        <mxPoint x="290" y="250" as="targetPoint"/>
                        <Array as="points">
                            <mxPoint x="546" y="290"/>
                            <mxPoint x="500" y="290"/>
                        </Array>
                    </mxGeometry>
                </mxCell>
                <mxCell id="5BAmmzw00M4IaMCcG9dD-24" value="" style="endArrow=classic;html=1;curved=1;strokeColor=#FFD966;strokeWidth=2;dashed=1;edgeStyle=orthogonalEdgeStyle;entryX=0.5;entryY=0;entryDx=0;entryDy=0;exitX=0;exitY=1;exitDx=0;exitDy=0;" parent="5BAmmzw00M4IaMCcG9dD-1" source="5BAmmzw00M4IaMCcG9dD-6" target="5BAmmzw00M4IaMCcG9dD-25" edge="1">
                    <mxGeometry width="50" height="50" relative="1" as="geometry">
                        <mxPoint x="410" y="370" as="sourcePoint"/>
                        <mxPoint x="560" y="220" as="targetPoint"/>
                    </mxGeometry>
                </mxCell>
                <mxCell id="5BAmmzw00M4IaMCcG9dD-25" value="&lt;font color=&quot;#000000&quot; style=&quot;font-size: 14px&quot;&gt;&lt;b&gt;None&lt;/b&gt;&lt;/font&gt;" style="text;html=1;strokeColor=none;fillColor=none;align=center;verticalAlign=middle;whiteSpace=wrap;rounded=0;" parent="5BAmmzw00M4IaMCcG9dD-1" vertex="1">
                    <mxGeometry x="40" y="300" width="40" height="20" as="geometry"/>
                </mxCell>
                <mxCell id="5BAmmzw00M4IaMCcG9dD-26" value="" style="endArrow=classic;html=1;dashed=1;strokeColor=#FFD966;strokeWidth=2;" parent="5BAmmzw00M4IaMCcG9dD-1" edge="1">
                    <mxGeometry width="50" height="50" relative="1" as="geometry">
                        <mxPoint x="80" y="119.5" as="sourcePoint"/>
                        <mxPoint x="130" y="119.5" as="targetPoint"/>
                    </mxGeometry>
                </mxCell>
                <mxCell id="5BAmmzw00M4IaMCcG9dD-27" value="&lt;font color=&quot;#000000&quot; style=&quot;font-size: 14px&quot;&gt;&lt;b&gt;left thread&lt;/b&gt;&lt;/font&gt;" style="text;html=1;strokeColor=none;fillColor=none;align=left;verticalAlign=middle;whiteSpace=wrap;rounded=0;" parent="5BAmmzw00M4IaMCcG9dD-1" vertex="1">
                    <mxGeometry x="135" y="110" width="90" height="20" as="geometry"/>
                </mxCell>
                <mxCell id="5BAmmzw00M4IaMCcG9dD-28" value="" style="endArrow=classic;html=1;curved=1;strokeColor=#97D077;strokeWidth=2;dashed=1;edgeStyle=orthogonalEdgeStyle;entryX=0.5;entryY=1;entryDx=0;entryDy=0;exitX=1;exitY=1;exitDx=0;exitDy=0;" parent="5BAmmzw00M4IaMCcG9dD-1" source="5BAmmzw00M4IaMCcG9dD-6" target="5BAmmzw00M4IaMCcG9dD-4" edge="1">
                    <mxGeometry width="50" height="50" relative="1" as="geometry">
                        <mxPoint x="115.85786437626894" y="284.14213562373106" as="sourcePoint"/>
                        <mxPoint x="70" y="310" as="targetPoint"/>
                        <Array as="points">
                            <mxPoint x="134" y="280"/>
                            <mxPoint x="180" y="280"/>
                        </Array>
                    </mxGeometry>
                </mxCell>
                <mxCell id="5BAmmzw00M4IaMCcG9dD-29" value="" style="endArrow=classic;html=1;curved=1;strokeColor=#97D077;strokeWidth=2;dashed=1;edgeStyle=orthogonalEdgeStyle;entryX=0.5;entryY=1;entryDx=0;entryDy=0;exitX=1;exitY=1;exitDx=0;exitDy=0;" parent="5BAmmzw00M4IaMCcG9dD-1" source="5BAmmzw00M4IaMCcG9dD-10" target="5BAmmzw00M4IaMCcG9dD-7" edge="1">
                    <mxGeometry width="50" height="50" relative="1" as="geometry">
                        <mxPoint x="144.14213562373106" y="284.14213562373106" as="sourcePoint"/>
                        <mxPoint x="190" y="230" as="targetPoint"/>
                        <Array as="points">
                            <mxPoint x="204" y="340"/>
                            <mxPoint x="240" y="340"/>
                        </Array>
                    </mxGeometry>
                </mxCell>
                <mxCell id="5BAmmzw00M4IaMCcG9dD-30" value="" style="endArrow=classic;html=1;curved=1;strokeColor=#97D077;strokeWidth=2;dashed=1;edgeStyle=orthogonalEdgeStyle;entryX=0.5;entryY=1;entryDx=0;entryDy=0;exitX=1;exitY=1;exitDx=0;exitDy=0;" parent="5BAmmzw00M4IaMCcG9dD-1" source="5BAmmzw00M4IaMCcG9dD-11" target="5BAmmzw00M4IaMCcG9dD-3" edge="1">
                    <mxGeometry width="50" height="50" relative="1" as="geometry">
                        <mxPoint x="254.14213562373106" y="344.14213562373106" as="sourcePoint"/>
                        <mxPoint x="290" y="290" as="targetPoint"/>
                        <Array as="points">
                            <mxPoint x="304" y="350"/>
                            <mxPoint x="340" y="350"/>
                        </Array>
                    </mxGeometry>
                </mxCell>
                <mxCell id="5BAmmzw00M4IaMCcG9dD-31" value="" style="endArrow=classic;html=1;curved=1;strokeColor=#97D077;strokeWidth=2;dashed=1;edgeStyle=orthogonalEdgeStyle;entryX=0.5;entryY=1;entryDx=0;entryDy=0;exitX=1;exitY=1;exitDx=0;exitDy=0;" parent="5BAmmzw00M4IaMCcG9dD-1" source="5BAmmzw00M4IaMCcG9dD-8" target="5BAmmzw00M4IaMCcG9dD-5" edge="1">
                    <mxGeometry width="50" height="50" relative="1" as="geometry">
                        <mxPoint x="304.14213562373106" y="354.14213562373106" as="sourcePoint"/>
                        <mxPoint x="340" y="300" as="targetPoint"/>
                        <Array as="points">
                            <mxPoint x="454" y="290"/>
                            <mxPoint x="500" y="290"/>
                        </Array>
                    </mxGeometry>
                </mxCell>
                <mxCell id="5BAmmzw00M4IaMCcG9dD-32" value="" style="endArrow=classic;html=1;curved=1;strokeColor=#97D077;strokeWidth=2;dashed=1;edgeStyle=orthogonalEdgeStyle;exitX=1;exitY=1;exitDx=0;exitDy=0;entryX=0.5;entryY=0;entryDx=0;entryDy=0;" parent="5BAmmzw00M4IaMCcG9dD-1" source="5BAmmzw00M4IaMCcG9dD-9" target="5BAmmzw00M4IaMCcG9dD-36" edge="1">
                    <mxGeometry width="50" height="50" relative="1" as="geometry">
                        <mxPoint x="314.14213562373106" y="364.14213562373106" as="sourcePoint"/>
                        <mxPoint x="640" y="320" as="targetPoint"/>
                        <Array as="points">
                            <mxPoint x="600" y="274"/>
                        </Array>
                    </mxGeometry>
                </mxCell>
                <mxCell id="5BAmmzw00M4IaMCcG9dD-33" value="" style="endArrow=classic;html=1;curved=1;strokeColor=#FFD966;strokeWidth=2;dashed=1;exitX=0;exitY=1;exitDx=0;exitDy=0;edgeStyle=orthogonalEdgeStyle;entryX=0.5;entryY=1;entryDx=0;entryDy=0;" parent="5BAmmzw00M4IaMCcG9dD-1" source="5BAmmzw00M4IaMCcG9dD-8" target="5BAmmzw00M4IaMCcG9dD-3" edge="1">
                    <mxGeometry width="50" height="50" relative="1" as="geometry">
                        <mxPoint x="555.8578643762689" y="284.14213562373106" as="sourcePoint"/>
                        <mxPoint x="510" y="230" as="targetPoint"/>
                        <Array as="points">
                            <mxPoint x="426" y="300"/>
                            <mxPoint x="340" y="300"/>
                        </Array>
                    </mxGeometry>
                </mxCell>
                <mxCell id="5BAmmzw00M4IaMCcG9dD-34" value="" style="endArrow=classic;html=1;dashed=1;strokeColor=#97D077;strokeWidth=2;" parent="5BAmmzw00M4IaMCcG9dD-1" edge="1">
                    <mxGeometry width="50" height="50" relative="1" as="geometry">
                        <mxPoint x="80" y="89.5" as="sourcePoint"/>
                        <mxPoint x="130" y="89.5" as="targetPoint"/>
                    </mxGeometry>
                </mxCell>
                <mxCell id="5BAmmzw00M4IaMCcG9dD-35" value="&lt;font color=&quot;#000000&quot; style=&quot;font-size: 14px&quot;&gt;&lt;b&gt;right thread&lt;/b&gt;&lt;/font&gt;" style="text;html=1;strokeColor=none;fillColor=none;align=left;verticalAlign=middle;whiteSpace=wrap;rounded=0;" parent="5BAmmzw00M4IaMCcG9dD-1" vertex="1">
                    <mxGeometry x="135" y="80" width="90" height="20" as="geometry"/>
                </mxCell>
                <mxCell id="5BAmmzw00M4IaMCcG9dD-36" value="&lt;font color=&quot;#000000&quot; style=&quot;font-size: 14px&quot;&gt;&lt;b&gt;None&lt;/b&gt;&lt;/font&gt;" style="text;html=1;strokeColor=none;fillColor=none;align=center;verticalAlign=middle;whiteSpace=wrap;rounded=0;" parent="5BAmmzw00M4IaMCcG9dD-1" vertex="1">
                    <mxGeometry x="580" y="310" width="40" height="20" as="geometry"/>
                </mxCell>
                <mxCell id="5BAmmzw00M4IaMCcG9dD-3" value="23" style="ellipse;whiteSpace=wrap;html=1;aspect=fixed;strokeColor=#006EAF;strokeWidth=2;fillColor=#1ba1e2;fontColor=#ffffff;" parent="5BAmmzw00M4IaMCcG9dD-1" vertex="1">
                    <mxGeometry x="320" y="100" width="40" height="40" as="geometry"/>
                </mxCell>
            </root>
        </mxGraphModel>
    </diagram>
</mxfile>